<svg xmlns="http://www.w3.org/2000/svg" viewBox="0 0 24 24"><path fill="#4285F4" d="M23.52 12.27c0-.85-.08-1.67-.22-2.45H12v4.64h6.44c-.28 1.5-1.12 2.77-2.38 3.62v3.01h3.86c2.26-2.08 3.6-5.15 3.6-8.82z"></path><path fill="#34A853" d="M12 24c3.24 0 5.96-1.08 7.95-2.91l-3.86-3.01c-1.08.72-2.45 1.16-4.09 1.16-3.13 0-5.78-2.11-6.72-4.96H1.29v3.12C3.26 21.3 7.31 24 12 24z"></path><path fill="#FBBC05" d="M5.28 14.28A7.2 7.2 0 0 1 4.9 12c0-.79.14-1.56.38-2.28V6.6H1.29A11.98 11.98 0 0 0 0 12c0 1.94.47 3.78 1.29 5.4z"></path><path fill="#EA4335" d="M12 4.75c1.77 0 3.35.61 4.6 1.8l3.42-3.42C17.95 1.19 15.24 0 12 0 7.31 0 3.26 2.7 1.29 6.6l3.99 3.12C6.22 6.87 8.87 4.75 12 4.75z"></path></svg>
